<svg width="37" height="33" viewBox="0 0 37 33" fill="none" xmlns="http://www.w3.org/2000/svg">
<path fill-rule="evenodd" clip-rule="evenodd" d="M8.57579 27.5659C9.03155 27.5659 9.40199 27.9364 9.40199 28.3921C9.40199 28.8479 9.03155 29.2172 8.57579 29.2172C8.12003 29.2172 7.75067 28.8479 7.75067 28.3921C7.75067 27.9364 8.12003 27.5659 8.57579 27.5659Z" stroke="#C92071" stroke-width="1.62" stroke-linecap="round" stroke-linejoin="round"/>
<path fill-rule="evenodd" clip-rule="evenodd" d="M20.7284 27.5659C21.1842 27.5659 21.5546 27.9364 21.5546 28.3921C21.5546 28.8479 21.1842 29.2172 20.7284 29.2172C20.2727 29.2172 19.9022 28.8479 19.9022 28.3921C19.9022 27.9364 20.2727 27.5659 20.7284 27.5659Z" stroke="#C92071" stroke-width="1.62" stroke-linecap="round" stroke-linejoin="round"/>
<path d="M3.52979 9.67004L5.77618 10.0588L6.81622 22.4497C6.90046 23.4595 7.74394 24.2349 8.75698 24.2349H20.5419C21.5096 24.2349 22.3304 23.5243 22.4697 22.5652L23.4947 15.4826C23.621 14.6089 22.9439 13.827 22.0615 13.827H6.13691" stroke="#C92071" stroke-width="1.62" stroke-linecap="round" stroke-linejoin="round"/>
<path d="M15.8153 17.8186H18.8101" stroke="#C92071" stroke-width="1.62" stroke-linecap="round" stroke-linejoin="round"/>
<circle cx="27.02" cy="9.94001" r="9.18" fill="#EE4266"/>
<path d="M24.004 14.76V13.3241L27.359 10.2176C27.6444 9.94143 27.8837 9.69291 28.077 9.472C28.2733 9.25109 28.4221 9.03478 28.5234 8.82308C28.6246 8.60831 28.6753 8.37666 28.6753 8.12814C28.6753 7.852 28.6124 7.61421 28.4866 7.41478C28.3608 7.21228 28.189 7.05734 27.9711 6.94995C27.7533 6.8395 27.5063 6.78427 27.2302 6.78427C26.9418 6.78427 26.6902 6.84257 26.4754 6.95916C26.2606 7.07575 26.0949 7.24296 25.9783 7.46081C25.8618 7.67865 25.8035 7.93791 25.8035 8.23859H23.9119C23.9119 7.62189 24.0515 7.08649 24.3307 6.6324C24.6099 6.17831 25.0011 5.827 25.5043 5.57848C26.0075 5.32995 26.5874 5.20569 27.244 5.20569C27.919 5.20569 28.5065 5.32535 29.0066 5.56467C29.5098 5.80092 29.901 6.12921 30.1802 6.54956C30.4594 6.9699 30.599 7.4516 30.599 7.99467C30.599 8.35058 30.5285 8.70189 30.3873 9.04859C30.2493 9.39529 30.0023 9.78035 29.6464 10.2038C29.2904 10.6241 28.7888 11.1288 28.1414 11.7179L26.7653 13.0664V13.1308H30.7233V14.76H24.004Z" fill="white"/>
</svg>
